<svg xmlns="http://www.w3.org/2000/svg" viewBox="0 0 200 200" fill="currentColor" stroke="currentColor">
  <!-- Sagittarius / Dhanu - archer shape, like reference Sagittarius -->
  <line x1="40" y1="140" x2="65" y2="120" stroke-width="1.2" />
  <line x1="65" y1="120" x2="80" y2="95" stroke-width="1.2" />
  <line x1="80" y1="95" x2="100" y2="80" stroke-width="1.2" />
  <line x1="100" y1="80" x2="120" y2="60" stroke-width="1.2" />
  <line x1="120" y1="60" x2="150" y2="40" stroke-width="1.2" />
  <line x1="100" y1="80" x2="85" y2="60" stroke-width="1.2" />
  <line x1="100" y1="80" x2="120" y2="100" stroke-width="1.2" />
  <line x1="120" y1="100" x2="140" y2="110" stroke-width="1.2" />
  <line x1="140" y1="110" x2="155" y2="130" stroke-width="1.2" />
  <line x1="120" y1="100" x2="110" y2="130" stroke-width="1.2" />
  <line x1="80" y1="95" x2="55" y2="85" stroke-width="1.2" />
  <line x1="150" y1="40" x2="160" y2="55" stroke-width="1.2" />
  <line x1="150" y1="40" x2="140" y2="30" stroke-width="1.2" />
  <circle cx="40" cy="140" r="4.5" />
  <circle cx="65" cy="120" r="3.5" />
  <circle cx="80" cy="95" r="4" />
  <circle cx="100" cy="80" r="4.5" />
  <circle cx="120" cy="60" r="3.5" />
  <circle cx="150" cy="40" r="5" />
  <circle cx="85" cy="60" r="3" />
  <circle cx="120" cy="100" r="4" />
  <circle cx="140" cy="110" r="3.5" />
  <circle cx="155" cy="130" r="4" />
  <circle cx="110" cy="130" r="3.5" />
  <circle cx="55" cy="85" r="3" />
  <circle cx="160" cy="55" r="3" />
  <circle cx="140" cy="30" r="3" />
</svg>
