<svg xmlns="http://www.w3.org/2000/svg" viewBox="0 0 200 200" fill="currentColor" stroke="currentColor">
  <!-- Leo / Simha - sickle + triangle, like reference Leo -->
  <line x1="40" y1="100" x2="55" y2="70" stroke-width="1.2" />
  <line x1="55" y1="70" x2="80" y2="50" stroke-width="1.2" />
  <line x1="80" y1="50" x2="105" y2="55" stroke-width="1.2" />
  <line x1="105" y1="55" x2="115" y2="80" stroke-width="1.2" />
  <line x1="115" y1="80" x2="100" y2="105" stroke-width="1.2" />
  <line x1="100" y1="105" x2="120" y2="130" stroke-width="1.2" />
  <line x1="120" y1="130" x2="155" y2="140" stroke-width="1.2" />
  <line x1="155" y1="140" x2="160" y2="115" stroke-width="1.2" />
  <line x1="120" y1="130" x2="130" y2="160" stroke-width="1.2" />
  <circle cx="40" cy="100" r="5" />
  <circle cx="55" cy="70" r="3.5" />
  <circle cx="80" cy="50" r="4" />
  <circle cx="105" cy="55" r="3.5" />
  <circle cx="115" cy="80" r="4" />
  <circle cx="100" cy="105" r="3.5" />
  <circle cx="120" cy="130" r="4.5" />
  <circle cx="155" cy="140" r="4" />
  <circle cx="160" cy="115" r="3.5" />
  <circle cx="130" cy="160" r="5" />
</svg>
